<?xml version="1.0" encoding="utf-8"?>
<!-- Generator: Adobe Illustrator 23.0.0, SVG Export Plug-In . SVG Version: 6.00 Build 0)  -->
<svg version="1.1" id="Layer_1" xmlns="http://www.w3.org/2000/svg" xmlns:xlink="http://www.w3.org/1999/xlink" x="0px" y="0px"
	 viewBox="0 0 113 103.54" style="enable-background:new 0 0 113 103.54;" xml:space="preserve">
<style type="text/css">
	.st0{fill:#D59F63;}
	.st1{fill:#CD915A;}
	.st2{fill:#FAD7A5;}
	.st3{fill:#F0C891;}
	.st4{fill:#FFE1B4;}
	.st5{fill:#FAD098;}
	.st6{fill:#FF507D;}
	.st7{fill:#D23C69;}
	.st8{fill:#B48764;}
	.st9{fill:#00AAF0;}
	.st10{fill:#0096DC;}
	.st11{fill:#966D50;}
	.st12{fill:#C39772;}
	.st13{fill:#64463C;}
	.st14{fill:#553732;}
	.st15{fill:#E6AF78;}
	.st16{fill:#D29B6E;}
	.st17{fill:#F0C087;}
	.st18{fill:#FFDC64;}
</style>
<g>
	<path class="st0" d="M84.87,11.27L84.87,11.27L84.87,11.27L84.87,11.27L84.87,11.27c11.49,0,20.8,9.31,20.8,20.8l0,0
		c0,13.24,1.89,26.48,1.89,26.48s-9.46,5.67-22.69,7.56c-13.24-1.89-22.69-7.56-22.69-7.56s1.89-13.24,1.89-26.48l0,0
		C64.07,20.59,73.38,11.27,84.87,11.27L84.87,11.27L84.87,11.27L84.87,11.27L84.87,11.27z"/>
	<path class="st1" d="M77.3,30.18v-5.67c0-6.43,4.58-11.78,10.66-12.98c-1.01-0.15-2.04-0.26-3.1-0.26h0
		c-11.49,0-20.8,9.31-20.8,20.8c0,13.24-1.89,26.48-1.89,26.48s9.46,5.67,22.69,7.56V37.75L77.3,30.18z"/>
	<path class="st2" d="M107.78,72.26l-12.97-5.19c-1.44-0.57-2.38-1.97-2.38-3.51v-6.9H77.3v6.9c0,1.55-0.94,2.94-2.38,3.51
		l-12.97,5.19c-2.15,0.86-3.57,2.95-3.57,5.27v7.51c0,1.04,0.85,1.89,1.89,1.89l0,0v17.02h49.17V86.92l0,0c1.04,0,1.89,0,1.89,0
		v-9.4C111.35,75.2,109.93,73.12,107.78,72.26z"/>
	<g>
		<path class="st3" d="M84.87,66.12c2.73,0,5.33-0.51,7.76-1.39c-0.12-0.37-0.19-0.76-0.19-1.17v-6.9H77.3v6.9
			c0,0.41-0.07,0.8-0.19,1.17C79.53,65.61,82.14,66.12,84.87,66.12z"/>
		<path class="st3" d="M60.28,85.03v5.67h1.89c1.04,0,1.89,0.85,1.89,1.89v11.35h5.67V85.03H60.28z"/>
	</g>
	<path class="st4" d="M84.87,60.44L84.87,60.44c-9.4,0-15.13-7.62-15.13-17.02v-7.56c5.44,0,6.06-3.91,7.03-6.11
		c0.3-0.66,1.12-0.88,1.7-0.44c8.01,6.05,23.42,1.52,23.42,14.12l0,0C101.89,52.82,94.27,60.44,84.87,60.44z"/>
	<path class="st5" d="M77.3,43.42v-14.2c-0.22,0.11-0.42,0.27-0.53,0.52c-0.98,2.2-1.59,6.11-7.03,6.11v6.96
		c0,7.82,3.14,14.96,10.68,17.02c3.25,0.89,6.35,0.74,9.17-0.08C82.5,57.71,77.3,51.18,77.3,43.42z"/>
	<path class="st6" d="M107.78,72.26l-8.07-3.23c-1.36,6.96-7.48,12.22-14.84,12.22c-7.36,0-13.49-5.26-14.84-12.22l-8.07,3.23
		c-2.15,0.86-3.57,2.95-3.57,5.27v26.42h43.5V86.92h9.46v-9.4C111.35,75.2,109.93,73.12,107.78,72.26z"/>
	<g>
		<path class="st7" d="M101.89,83.14l8.6-8.6c0.54,0.88,0.86,1.9,0.86,2.98v9.4h-9.46L101.89,83.14L101.89,83.14z"/>
		<path class="st7" d="M99.71,69.03c-1.36,6.96-7.48,12.22-14.84,12.22s-13.49-5.26-14.84-12.22l-5.32,2.13
			c2.26,9.05,10.41,15.76,20.16,15.76s17.91-6.71,20.16-15.76L99.71,69.03z"/>
	</g>
	<rect x="3.55" y="83.14" class="st8" width="11.35" height="20.8"/>
	<path class="st9" d="M54.21,59.3l-16.62-4.53H22.46L5.84,59.3c-2.47,0.67-4.18,2.92-4.18,5.47v18.36H13v20.8h45.39V64.78
		C58.39,62.22,56.68,59.98,54.21,59.3z"/>
	<path class="st10" d="M46.84,57.29l-9.25-2.52H22.46l-9.25,2.52c1.22,8.2,8.27,14.5,16.81,14.5S45.62,65.49,46.84,57.29z"/>
	<path class="st8" d="M20.57,48.15v6.62c0,5.22,4.23,9.46,9.46,9.46s9.46-4.23,9.46-9.46v-6.62L20.57,48.15L20.57,48.15z"/>
	<path class="st11" d="M20.57,54.58c2.88,1.32,6.08,2.08,9.46,2.08s6.57-0.76,9.46-2.08v-6.43H20.57V54.58z"/>
	<path class="st12" d="M47.04,26.4V15.05H13V26.4c-2.09,0-3.78,1.69-3.78,3.78s1.69,3.78,3.78,3.78c0,9.4,7.62,17.02,17.02,17.02
		s17.02-7.62,17.02-17.02c2.09,0,3.78-1.69,3.78-3.78C50.83,28.1,49.13,26.4,47.04,26.4z"/>
	<path class="st8" d="M22.46,33.97V15.05H13V26.4c-2.09,0-3.78,1.69-3.78,3.78s1.69,3.78,3.78,3.78c0,9.4,7.62,17.02,17.02,17.02
		c1.64,0,3.23-0.25,4.73-0.68C27.65,48.26,22.46,41.73,22.46,33.97z"/>
	<path class="st13" d="M44.75,27.2c0.64-0.49,1.43-0.79,2.29-0.79c0.69,0,1.33,0.2,1.89,0.52V15.05c0-2.83-1.57-5.27-3.87-6.56
		c-0.43-2.71-2.76-4.78-5.58-4.78H24.35c-7.31,0-13.24,5.93-13.24,13.24v9.98c0.56-0.32,1.2-0.52,1.89-0.52
		c0.24,0,0.48,0.02,0.71,0.07c1.84,0.36,3.69-0.66,4.15-2.48l0,0l0.47-1.86c0.21-0.82,0.93-1.41,1.77-1.43
		c3.94-0.11,15.11-0.68,21.27-3.76l1.1,6.61C42.72,25.07,43.58,26.35,44.75,27.2z"/>
	<path class="st14" d="M22.46,15.05c0-6.27,5.08-11.35,11.35-11.35h-9.46c-7.31,0-13.24,5.93-13.24,13.24v9.98
		c0.56-0.32,1.2-0.52,1.89-0.52c0.59,0,1.14,0.14,1.64,0.39c1.22,0.61,2.55-0.1,2.88-1.42l0.81-3.23c0.21-0.82,0.93-1.41,1.77-1.43
		c0.62-0.02,1.43-0.05,2.36-0.09L22.46,15.05L22.46,15.05z"/>
	<path class="st10" d="M1.66,64.78v18.36H13v-6.21c0-2.1-0.7-4.15-1.99-5.81L3.13,60.99C2.21,62.01,1.66,63.34,1.66,64.78z"/>
	<path class="st15" d="M71.53,93.19l-6.17-2.06c-0.77-0.26-1.29-0.98-1.29-1.79v-4.31H52.72v4.31c0,0.81-0.52,1.54-1.29,1.79
		l-6.17,2.06c-2.32,0.77-3.88,2.94-3.88,5.38v5.37h34.04v-5.37C75.41,96.13,73.85,93.96,71.53,93.19z"/>
	<path class="st16" d="M58.39,92.59c2.53,0,4.93-0.5,7.14-1.4l-0.17-0.06c-0.77-0.26-1.29-0.98-1.29-1.79v-4.31H52.72v4.31
		c0,0.81-0.52,1.54-1.29,1.79l-0.17,0.06C53.46,92.09,55.86,92.59,58.39,92.59z"/>
	<path class="st13" d="M58.39,45.31L58.39,45.31c-9.4,0-17.02,7.62-17.02,17.02v5.67h34.04v-5.67
		C75.41,52.93,67.79,45.31,58.39,45.31z"/>
	<path class="st14" d="M64.07,46.3c-1.78-0.63-3.68-0.99-5.67-0.99c-9.4,0-17.02,7.62-17.02,17.02v5.67h11.35v-5.67
		C52.72,54.93,57.46,48.64,64.07,46.3z"/>
	<path class="st17" d="M73.44,64.23h-0.13c-1.97,0-3.57-1.6-3.57-3.57l0,0c0-1.01-1.01-1.72-1.96-1.38
		c-13.98,4.96-22.62,4.96-22.62,4.96h-1.81c-1.89,0-3.56,1.36-3.82,3.23c-0.33,2.33,1.47,4.33,3.74,4.33h1.89v1.69
		c0,7.11,5.53,13.11,12.64,13.42c7.58,0.33,13.84-5.71,13.84-13.23v-1.89h1.89c2.27,0,4.07-2,3.74-4.33
		C77,65.59,75.34,64.23,73.44,64.23z"/>
	<polygon class="st18" points="69.74,41.53 58.39,46.39 47.04,41.53 47.04,52.88 58.39,48.02 69.74,52.88 	"/>
	<path class="st15" d="M52.72,73.68V63.44c-4.47,0.78-7.56,0.79-7.56,0.79h-1.89c-2.09,0-3.78,1.69-3.78,3.78s1.69,3.78,3.78,3.78
		h1.89v1.34c0,7.25,5.59,13.57,12.83,13.79c1.46,0.04,2.87-0.16,4.19-0.55C56.71,84.74,52.72,79.68,52.72,73.68z"/>
	<path class="st18" d="M71.53,93.19l-3.08-1.03c-1.89,3.63-5.68,6.1-10.06,6.1s-8.16-2.48-10.06-6.1l-3.08,1.03
		c-2.32,0.77-3.88,2.94-3.88,5.38v5.37h34.04v-5.37C75.41,96.13,73.85,93.96,71.53,93.19z"/>
	<path d="M30.02,43.19c1.93,0,3.78-0.91,5.07-2.5c0.58-0.71,0.47-1.75-0.24-2.33c-0.71-0.58-1.75-0.47-2.33,0.24
		c-0.67,0.82-1.56,1.28-2.5,1.28s-1.83-0.45-2.5-1.28c-0.58-0.71-1.62-0.82-2.33-0.24c-0.71,0.58-0.82,1.62-0.24,2.33
		C26.25,42.27,28.09,43.19,30.02,43.19z"/>
	<path d="M22.46,33.73c0.91,0,1.66-0.74,1.66-1.66v-1.89c0-0.91-0.74-1.66-1.66-1.66s-1.66,0.74-1.66,1.66v1.89
		C20.8,32.99,21.54,33.73,22.46,33.73z"/>
	<path d="M37.59,33.73c0.91,0,1.66-0.74,1.66-1.66v-1.89c0-0.91-0.74-1.66-1.66-1.66s-1.66,0.74-1.66,1.66v1.89
		C35.93,32.99,36.67,33.73,37.59,33.73z"/>
	<path d="M84.87,52.64c1.93,0,3.78-0.91,5.07-2.5c0.58-0.71,0.47-1.75-0.24-2.33s-1.75-0.47-2.33,0.24
		c-0.67,0.82-1.56,1.28-2.5,1.28c-0.94,0-1.83-0.45-2.5-1.28c-0.58-0.71-1.62-0.82-2.33-0.24c-0.71,0.58-0.82,1.62-0.24,2.33
		C81.09,51.73,82.94,52.64,84.87,52.64z"/>
	<path d="M77.3,43.19c0.91,0,1.66-0.74,1.66-1.66v-1.89c0-0.91-0.74-1.66-1.66-1.66c-0.91,0-1.66,0.74-1.66,1.66v1.89
		C75.65,42.45,76.39,43.19,77.3,43.19z"/>
	<path d="M92.43,43.19c0.91,0,1.66-0.74,1.66-1.66v-1.89c0-0.91-0.74-1.66-1.66-1.66s-1.66,0.74-1.66,1.66v1.89
		C90.78,42.45,91.52,43.19,92.43,43.19z"/>
	<path d="M108.39,70.72l-12.97-5.19c-0.07-0.03-0.14-0.06-0.2-0.1c8.96-2.04,13.2-5.45,13.39-5.6c0.45-0.37,0.67-0.94,0.59-1.51
		c-0.02-0.13-1.87-13.27-1.87-26.24c0-12.38-10.07-22.46-22.46-22.46S62.41,19.69,62.41,32.08c0,3.39-0.15,7.54-0.4,11.47
		l-3.61,1.81l-10.61-5.3c-0.03-0.02-0.06-0.03-0.09-0.04c0.5-1.47,0.83-3.02,0.96-4.63c2.22-0.69,3.84-2.76,3.84-5.2
		c0-1.64-0.73-3.12-1.89-4.12V15.05c0-3.04-1.54-5.89-4.06-7.6c-0.85-3.17-3.71-5.4-7.05-5.4H24.35c-8.21,0-14.89,6.68-14.89,14.89
		v9.12c-1.16,1-1.89,2.47-1.89,4.12c0,2.44,1.62,4.51,3.84,5.2c0.42,5.56,3.28,10.44,7.51,13.58v4.58L5.22,57.65
		C2.1,58.58,0,61.4,0,64.67v18.47c0,0.91,0.74,1.66,1.66,1.66h0.24v19.15c0,0.91,0.74,1.66,1.66,1.66s1.66-0.74,1.66-1.66V84.79
		h6.15v19.15c0,0.91,0.74,1.66,1.66,1.66s1.66-0.74,1.66-1.66V75.4c0-1.45-0.43-2.86-1.23-4.07l-2.83-4.24
		c-0.51-0.76-1.53-0.97-2.3-0.46c-0.76,0.51-0.97,1.53-0.46,2.3l2.83,4.24c0.44,0.66,0.67,1.43,0.67,2.23v6.08h-7.8H3.31V64.67
		c0-1.79,1.15-3.33,2.86-3.85l5.68-1.7c1.98,8.29,9.49,14.33,18.17,14.33c3.12,0,6.14-0.77,8.85-2.23c0.99,1.35,2.59,2.23,4.39,2.23
		h0.24v0.24c0,5.55,3.05,10.4,7.56,12.96v2.7c0,0.1-0.06,0.19-0.16,0.22l-6.17,2.06c-3,1-5.01,3.79-5.01,6.95v5.37
		c0,0.91,0.74,1.66,1.66,1.66s1.66-0.74,1.66-1.66v-5.37c0-1.73,1.1-3.26,2.75-3.81l1.82-0.61c2.4,3.58,6.44,5.77,10.8,5.77
		c4.36,0,8.4-2.18,10.8-5.77l1.82,0.61c1.64,0.55,2.75,2.08,2.75,3.81v5.37c0,0.91,0.74,1.66,1.66,1.66c0.91,0,1.66-0.74,1.66-1.66
		v-5.37c0-3.16-2.01-5.95-5.01-6.95l-6.17-2.06c-0.1-0.03-0.16-0.12-0.16-0.22v-2.7c3.38-1.92,5.94-5.12,7.01-8.93
		c3.13,3.27,7.5,5.2,12.14,5.2c7.33,0,13.76-4.74,15.98-11.64l6.32,2.53c1.53,0.61,2.53,2.08,2.53,3.73v7.74h-0.24h-5.91v-2.13
		c0-0.91-0.74-1.66-1.66-1.66c-0.91,0-1.66,0.74-1.66,1.66v20.8c0,0.91,0.74,1.66,1.66,1.66c0.91,0,1.66-0.74,1.66-1.66V88.58h4.25
		v15.37c0,0.91,0.74,1.66,1.66,1.66c0.91,0,1.66-0.74,1.66-1.66V88.58h0.24c0.44,0,0.86-0.17,1.17-0.48
		c0.31-0.31,0.48-0.73,0.48-1.17v-9.4C113,74.51,111.19,71.84,108.39,70.72z M65.72,32.08c0-10.56,8.59-19.15,19.15-19.15
		s19.15,8.59,19.15,19.15c0,11.12,1.34,22.35,1.77,25.71c-1.48,0.97-5.28,3.11-11.7,4.51v-2.63c0.88-0.5,1.72-1.07,2.51-1.71
		c3.26-2.63,5.56-6.32,6.48-10.38c0.31-1.35,0.46-2.75,0.46-4.15c0-9.36-6.77-10.7-13.31-12c-4.16-0.83-8.47-1.68-11.9-4.42
		c-0.5-0.4-1.18-0.47-1.75-0.2c-0.57,0.28-0.94,0.86-0.94,1.49c0,0.04-0.07,4.4-6.31,5.96c-0.89,0.22-1.43,1.12-1.2,2.01
		c0.22,0.89,1.12,1.43,2.01,1.2c5.22-1.31,7.35-4.23,8.22-6.44c3.59,2.13,7.61,2.93,11.23,3.64c6.99,1.39,10.64,2.41,10.64,8.75
		c0,1.15-0.13,2.3-0.38,3.42c-0.76,3.34-2.65,6.37-5.33,8.54c-2.76,2.23-6.1,3.41-9.65,3.41c-3.24,0-6.33-0.99-8.94-2.87
		c-0.96-2.62-2.5-5.01-4.53-6.99v-7.4c0-0.57-0.3-1.11-0.79-1.41c-0.49-0.3-1.1-0.33-1.61-0.07l-3.57,1.79
		C65.62,38.39,65.72,35.11,65.72,32.08z M68.08,44.21v5.99l-5.99-3L68.08,44.21z M48.7,44.21l5.99,3l-5.99,3V44.21z M45.39,48.93
		c-1.85,1.8-3.3,3.95-4.27,6.3c0.01-0.15,0.01-0.31,0.01-0.46v-5.81c1.65-1.22,3.09-2.71,4.25-4.4V48.93z M14.66,33.97
		c0-0.91-0.74-1.66-1.66-1.66c-1.17,0-2.13-0.95-2.13-2.13c0-1.17,0.95-2.13,2.13-2.13h3.78c0.71,0,1.34-0.46,1.57-1.13l1.52-4.56
		c3.8-0.09,15.6-0.62,22.24-3.94c0.82-0.41,1.15-1.4,0.74-2.22c-0.41-0.82-1.4-1.15-2.22-0.74c-7.12,3.56-21.81,3.61-21.95,3.61
		c-0.71,0-1.34,0.46-1.57,1.13l-1.51,4.54H13c-0.08,0-0.16,0-0.24,0.01v-7.81c0-6.39,5.2-11.58,11.58-11.58h15.13
		c1.98,0,3.64,1.42,3.95,3.39c0.08,0.5,0.38,0.93,0.82,1.18c1.87,1.05,3.03,3.02,3.03,5.12v9.7c-0.08,0-0.16-0.01-0.24-0.01h-1.89
		c-0.91,0-1.66,0.74-1.66,1.66s0.74,1.66,1.66,1.66h1.89c1.17,0,2.13,0.95,2.13,2.13s-0.95,2.13-2.13,2.13
		c-0.91,0-1.66,0.74-1.66,1.66c0,8.47-6.89,15.37-15.37,15.37S14.66,42.44,14.66,33.97z M30.02,52.64c2.78,0,5.43-0.61,7.8-1.71
		v3.84c0,4.3-3.5,7.8-7.8,7.8c-4.29,0-7.79-3.49-7.8-7.78c0-0.01,0-0.02,0-0.02v-3.83C24.6,52.03,27.24,52.64,30.02,52.64z
		 M15.04,58.16l4.09-1.23c1.01,5.1,5.51,8.95,10.9,8.95c4.28,0,8-2.43,9.85-5.98c-0.11,0.8-0.16,1.62-0.16,2.44v1.57
		c-1.19,1.02-1.89,2.52-1.89,4.1c-2.36,1.39-5.04,2.13-7.8,2.13C22.82,70.14,16.59,65.07,15.04,58.16z M64.84,92.7l1.06,0.35
		c-1.82,2.23-4.56,3.56-7.5,3.56c-2.94,0-5.68-1.33-7.5-3.56l1.05-0.35c1.45-0.48,2.43-1.84,2.43-3.36v-1.32
		c1.28,0.36,2.63,0.56,4.02,0.56s2.74-0.2,4.02-0.56v1.32C62.41,90.87,63.38,92.22,64.84,92.7z M58.39,85.27
		c-6.39,0-11.58-5.2-11.58-11.58v-1.89c0-0.91-0.74-1.66-1.66-1.66h-1.89c-1.17,0-2.13-0.95-2.13-2.13c0-0.75,0.4-1.44,1.07-1.83
		c0.15-0.09,0.28-0.2,0.39-0.32c4.09-0.12,17.36-0.89,26.07-5.87c0.79-0.45,1.07-1.46,0.62-2.26c-0.45-0.79-1.47-1.07-2.26-0.62
		c-7.64,4.36-19.64,5.24-24,5.41v-0.19c0-3.08,0.93-6.06,2.62-8.57c0.13,0.21,0.31,0.39,0.53,0.53c0.27,0.16,0.57,0.25,0.87,0.25
		c0.25,0,0.51-0.06,0.74-0.17l10.61-5.3L69,54.36c0.23,0.12,0.49,0.17,0.74,0.17c0.3,0,0.6-0.08,0.87-0.25
		c0.22-0.13,0.39-0.32,0.53-0.53c1.69,2.51,2.62,5.5,2.62,8.57v2.42c0,0.59,0.31,1.13,0.82,1.43c0.67,0.39,1.07,1.07,1.07,1.83
		c0,1.17-0.95,2.13-2.13,2.13h-1.89c-0.91,0-1.66,0.74-1.66,1.66v1.65c0,0.01,0,0.03,0,0.04v0.2
		C69.97,80.07,64.78,85.27,58.39,85.27z M84.87,79.59c-4.58,0-8.83-2.33-11.31-6.15c2.98-0.02,5.4-2.45,5.4-5.44
		c0-1.58-0.71-3.08-1.89-4.1v-1.57c0-0.67-0.04-1.33-0.11-1.99c2.45,1.15,5.13,1.75,7.91,1.75c2.02,0,4.01-0.33,5.91-0.97v2.42
		c0,2.24,1.34,4.22,3.42,5.05l3.57,1.43C96.05,75.69,90.83,79.59,84.87,79.59z"/>
	<path d="M63.22,76.18c-0.71-0.58-1.75-0.47-2.33,0.24c-0.67,0.82-1.56,1.28-2.5,1.28s-1.83-0.45-2.5-1.28
		c-0.58-0.71-1.62-0.82-2.33-0.24c-0.71,0.58-0.82,1.62-0.24,2.33c1.29,1.59,3.14,2.5,5.07,2.5s3.78-0.91,5.07-2.5
		C64.04,77.8,63.93,76.76,63.22,76.18z"/>
	<circle cx="52.75" cy="69.91" r="1.66"/>
	<circle cx="64" cy="69.91" r="1.66"/>
	<g>
	</g>
</g>
</svg>
